<?xml version="1.0" standalone="no"?>
<!DOCTYPE svg PUBLIC "-//W3C//DTD SVG 20010904//EN"
 "http://www.w3.org/TR/2001/REC-SVG-20010904/DTD/svg10.dtd">
<svg version="1.0" xmlns="http://www.w3.org/2000/svg"
 width="600.000000pt" height="600.000000pt" viewBox="0 0 600.000000 600.000000"
 preserveAspectRatio="xMidYMid meet">
<metadata>
Created by potrace 1.14, written by Peter Selinger 2001-2017
</metadata>
<g transform="translate(0.000000,600.000000) scale(0.100000,-0.100000)"
fill="#000000" stroke="none">
<path d="M0 4480 l0 -1521 21 12 c21 11 22 38 3 102 -4 12 4 22 26 35 23 13
29 22 25 37 -3 11 -8 37 -11 57 -6 34 -4 39 21 50 26 12 27 13 20 76 -6 60 -5
64 15 69 19 5 21 11 17 40 -5 29 -2 36 18 45 22 10 24 16 19 49 -5 32 -3 38
16 44 19 6 21 12 15 41 -5 30 -3 35 20 46 22 10 24 16 19 44 -5 27 -2 33 16
39 19 6 21 12 16 41 -6 27 -3 36 14 46 11 7 20 20 20 29 0 9 7 22 15 29 8 7
15 19 15 26 0 8 9 22 20 31 11 10 20 25 20 35 0 9 5 20 11 23 5 4 14 18 19 31
6 14 26 34 46 46 32 19 35 24 29 54 -5 27 -2 36 15 46 11 7 20 21 20 30 0 10
9 22 21 28 12 7 18 18 15 26 -3 8 3 20 14 26 11 7 20 20 20 30 0 9 9 23 20 31
12 8 18 20 15 30 -6 15 54 64 98 80 10 4 17 15 16 24 -3 34 1 41 35 57 24 11
33 21 30 34 -2 9 -1 22 3 28 16 23 328 271 364 289 22 12 28 21 25 38 -4 17 7
32 54 70 33 26 69 47 81 47 11 0 45 21 75 46 33 29 60 44 69 40 9 -3 26 6 42
24 18 20 36 30 55 30 20 0 37 9 55 31 19 22 33 29 53 27 16 -1 39 7 60 24 l33
26 -11 53 c-10 48 -9 56 7 70 11 8 21 24 23 35 2 10 18 28 35 39 22 14 32 28
33 45 0 14 8 30 18 36 9 7 53 41 97 78 47 40 85 64 94 61 8 -3 24 4 37 16 21
20 26 20 75 9 49 -12 53 -12 69 10 10 13 25 20 37 18 13 -2 30 8 47 30 17 19
37 32 51 32 12 0 28 7 35 15 7 8 23 15 35 15 12 0 29 7 36 16 10 12 24 15 57
10 43 -6 46 -5 88 42 39 42 45 46 64 34 16 -9 24 -10 39 0 16 10 23 9 39 -5
13 -12 36 -17 73 -17 49 0 59 -4 85 -31 l29 -31 148 4 c126 4 149 3 156 -10 6
-11 22 -15 53 -14 31 2 49 -2 58 -13 7 -8 23 -15 37 -15 13 0 26 -7 29 -15 4
-8 17 -15 30 -15 13 0 29 -9 36 -20 7 -11 17 -20 23 -20 5 0 16 -4 24 -9 12
-8 13 -12 1 -26 -12 -14 -8 -15 36 -10 27 3 69 7 94 10 25 2 74 8 110 13 38 5
83 5 108 -1 45 -9 59 -6 48 12 -4 7 -73 9 -190 8 -181 -3 -184 -2 -176 18 7
19 17 20 187 23 151 2 182 0 193 -13 7 -8 25 -15 41 -15 20 0 35 -9 51 -30 15
-21 30 -30 50 -30 17 0 31 -7 35 -16 4 -10 13 -14 29 -10 13 4 29 0 38 -9 8
-8 25 -15 38 -15 27 -1 68 -32 68 -53 0 -8 15 -30 33 -48 l32 -35 160 7 160 7
50 -47 c54 -52 179 -151 238 -191 30 -20 36 -30 32 -47 -4 -18 2 -26 35 -43
26 -13 40 -27 40 -40 0 -11 9 -25 20 -32 11 -7 20 -20 20 -29 0 -9 9 -24 20
-34 15 -13 17 -22 10 -36 -15 -26 -12 -37 10 -44 13 -4 20 -15 20 -30 0 -15 7
-26 20 -30 13 -4 20 -15 20 -30 0 -15 7 -26 20 -30 12 -4 20 -15 20 -30 0 -12
7 -25 15 -29 8 -3 15 -12 15 -19 0 -8 9 -22 20 -32 11 -10 20 -26 20 -35 0
-10 7 -23 15 -30 8 -7 15 -22 15 -34 0 -14 12 -26 33 -37 21 -10 33 -24 35
-40 2 -14 16 -33 36 -46 30 -19 34 -27 39 -80 4 -49 2 -61 -14 -75 -10 -9 -19
-23 -19 -31 0 -19 -83 -87 -107 -87 -11 0 -25 -6 -31 -12 -8 -8 -47 -14 -103
-15 -79 -2 -91 0 -102 18 -7 11 -23 19 -39 19 -15 0 -30 5 -33 10 -3 6 -18 10
-33 10 -31 0 -177 121 -177 147 0 8 -8 19 -18 24 -9 6 -17 18 -17 28 0 9 -13
27 -29 39 -43 32 -56 32 -53 0 2 -19 -3 -30 -18 -38 -31 -17 -19 -95 21 -130
21 -18 29 -35 29 -57 0 -22 6 -36 20 -43 14 -8 20 -21 20 -46 0 -22 6 -37 15
-40 8 -4 15 -15 15 -25 0 -10 9 -24 20 -31 17 -11 20 -24 20 -91 0 -73 -1 -78
-25 -87 -19 -7 -25 -17 -25 -39 0 -24 10 -36 61 -72 l61 -44 -5 -65 -4 -65 38
-18 c20 -10 39 -24 42 -31 3 -7 -1 -40 -8 -74 -13 -64 -12 -70 20 -88 16 -9
19 -20 16 -50 -7 -74 -6 -79 18 -89 22 -9 23 -14 17 -71 -6 -58 -5 -62 19 -78
21 -14 23 -20 15 -36 -15 -29 -12 -40 15 -50 17 -7 25 -17 25 -34 0 -15 7 -25
20 -29 12 -3 20 -14 20 -26 0 -12 7 -24 15 -27 8 -4 15 -16 15 -28 0 -16 16
-34 55 -61 30 -20 55 -45 55 -54 0 -16 69 -75 384 -330 78 -63 153 -127 169
-142 15 -17 38 -29 52 -29 29 0 33 -17 8 -35 -17 -13 -17 -14 1 -33 23 -26 13
-42 -25 -42 -34 0 -37 -9 -10 -32 13 -11 18 -24 14 -39 -4 -15 1 -27 18 -40
22 -18 23 -20 7 -32 -16 -13 -16 -15 0 -31 16 -16 16 -18 -8 -36 -14 -11 -40
-20 -57 -20 -40 0 -41 -7 -5 -37 l27 -23 -30 -25 c-16 -14 -39 -25 -51 -25
-11 0 -29 -9 -39 -20 -23 -25 -40 -25 -58 0 -8 12 -23 19 -37 18 -22 -3 -33 8
-44 46 -5 15 -13 18 -46 13 -31 -4 -43 -1 -57 15 -10 11 -37 34 -61 50 -25 17
-42 37 -42 48 0 11 -9 24 -20 30 -11 6 -20 20 -20 31 0 11 -7 22 -15 25 -8 4
-15 16 -15 28 0 16 -16 34 -52 59 -75 52 -129 104 -123 119 3 7 -13 26 -35 41
-37 26 -40 32 -34 61 5 28 2 34 -15 39 -13 3 -21 13 -21 26 0 13 -13 30 -35
43 -22 15 -35 31 -35 45 0 15 -12 31 -35 45 -33 22 -35 25 -29 69 6 41 4 47
-20 62 -14 10 -26 25 -26 35 -1 9 -15 26 -33 37 -18 12 -34 31 -37 47 -7 34
-104 113 -150 122 -46 8 -48 8 -98 -2 -45 -10 -112 -67 -112 -96 0 -8 -9 -20
-20 -26 -11 -6 -20 -21 -20 -35 0 -14 -7 -25 -17 -27 -14 -2 -18 -13 -18 -43
0 -39 -1 -40 -32 -37 -31 2 -33 0 -33 -28 0 -16 -5 -30 -11 -30 -5 0 -15 -13
-20 -30 -8 -20 -40 -51 -100 -95 -59 -44 -87 -70 -83 -79 3 -9 -3 -20 -15 -28
-12 -7 -21 -23 -21 -35 0 -13 -8 -24 -21 -28 -17 -6 -20 -12 -15 -40 6 -31 4
-35 -46 -68 -39 -27 -56 -33 -69 -26 -32 17 -70 10 -91 -16 -14 -18 -29 -25
-55 -25 -40 0 -85 -31 -93 -63 -3 -12 -37 -45 -75 -74 -152 -114 -165 -126
-165 -148 0 -15 -13 -31 -40 -49 -23 -15 -37 -31 -34 -39 2 -7 -4 -22 -16 -32
-11 -10 -20 -24 -20 -31 0 -7 -9 -18 -21 -24 -15 -8 -20 -19 -17 -40 1 -16 -5
-36 -14 -47 -9 -10 -18 -27 -20 -38 -2 -14 -11 -20 -28 -20 -32 0 -82 -34 -76
-51 3 -8 -5 -23 -17 -34 -15 -14 -21 -30 -19 -50 3 -21 -2 -32 -17 -40 -12 -6
-21 -20 -21 -30 0 -12 -27 -42 -70 -77 l-70 -57 0 -73 c0 -41 5 -75 11 -79 6
-3 69 -9 139 -12 125 -5 128 -4 140 18 11 20 17 21 74 16 92 -8 444 -9 457 0
7 4 9 20 6 40 -5 27 -2 36 14 44 10 6 19 19 19 30 0 11 9 24 20 30 11 6 20 21
20 33 0 15 11 29 30 40 20 12 30 26 30 42 0 17 19 37 74 79 41 31 80 56 86 56
20 0 91 -63 86 -77 -3 -7 4 -17 14 -23 11 -6 20 -18 20 -26 0 -9 9 -27 20 -41
11 -14 20 -31 20 -38 0 -7 7 -15 15 -19 8 -3 15 -13 15 -23 0 -10 8 -23 19
-30 16 -10 18 -24 16 -144 -2 -103 -6 -135 -17 -143 -8 -6 -18 -20 -21 -31 -4
-11 -20 -29 -36 -40 -18 -11 -31 -30 -33 -45 -2 -19 -10 -26 -32 -28 -16 -2
-43 -17 -60 -32 -21 -20 -37 -28 -51 -24 -13 3 -27 -1 -34 -10 -8 -9 -24 -16
-36 -16 -12 0 -28 -7 -35 -15 -7 -8 -22 -15 -34 -15 -12 0 -29 -9 -39 -21 -10
-11 -25 -18 -35 -15 -9 3 -48 8 -85 12 -63 6 -70 5 -84 -16 -15 -21 -20 -22
-89 -15 -68 6 -73 5 -84 -15 -11 -21 -16 -21 -110 -15 -89 7 -99 6 -108 -11
-10 -17 -24 -19 -128 -19 l-118 0 -7 -34 c-6 -28 -3 -38 15 -55 21 -19 23 -30
21 -108 -1 -73 -4 -90 -19 -101 -16 -11 -18 -22 -12 -55 5 -37 3 -43 -20 -58
-23 -16 -25 -22 -22 -78 3 -55 1 -61 -22 -74 -17 -9 -45 -11 -91 -8 -52 5 -69
3 -79 -9 -11 -13 168 -15 1584 -15 l1596 0 0 3000 0 3000 -3000 0 -3000 0 0
-1520z"/>
<path d="M2530 5840 c-15 -9 -5 -30 15 -30 18 0 27 27 11 33 -7 3 -19 2 -26
-3z"/>
<path d="M3275 5810 c-3 -5 -1 -10 4 -10 6 0 11 -6 11 -14 0 -15 76 -40 109
-34 35 5 28 22 -19 45 -48 23 -95 29 -105 13z"/>
<path d="M2445 5700 c-3 -5 -25 -10 -48 -11 -23 0 -55 -8 -71 -18 -52 -30
-116 -182 -85 -201 10 -7 10 -11 -1 -24 -11 -14 -11 -16 2 -11 8 3 21 16 27
29 7 12 26 30 42 40 20 12 29 25 29 43 0 19 4 24 16 19 12 -4 14 -1 9 14 -5
15 -3 18 9 14 11 -4 13 0 9 16 -5 20 -4 21 16 11 11 -7 21 -16 21 -20 0 -5 12
-6 26 -2 19 5 30 18 40 46 8 22 12 46 9 53 -5 14 -41 16 -50 2z"/>
<path d="M4200 5621 c0 -14 30 -41 45 -41 8 0 19 -9 25 -20 19 -35 30 -21 12
15 -10 20 -29 38 -46 45 -35 12 -36 12 -36 1z"/>
<path d="M2751 5528 c-53 -12 -91 -35 -91 -55 0 -28 46 -76 101 -103 30 -16
61 -35 67 -43 13 -16 49 -32 95 -41 31 -7 35 -30 10 -58 -15 -17 -15 -20 -2
-34 12 -11 22 -12 42 -5 19 8 28 20 35 53 5 24 5 51 0 60 -4 9 -8 30 -8 46 0
16 -11 54 -24 84 -24 54 -26 56 -96 82 -39 14 -74 26 -78 25 -4 -1 -27 -6 -51
-11z"/>
<path d="M3976 5443 c-43 -7 -76 -32 -76 -57 0 -22 49 -86 66 -86 5 0 38 -20
73 -45 36 -25 81 -50 100 -55 62 -17 70 -27 41 -53 -47 -43 -52 -53 -35 -71
15 -14 19 -14 46 0 55 28 71 51 63 92 -4 20 -13 51 -21 69 -7 18 -13 48 -13
66 0 63 -19 97 -65 117 -46 20 -132 31 -179 23z"/>
<path d="M4730 5446 c0 -2 7 -7 16 -10 8 -3 12 -2 9 4 -6 10 -25 14 -25 6z"/>
<path d="M2200 5400 c0 -5 5 -10 10 -10 6 0 10 5 10 10 0 6 -4 10 -10 10 -5 0
-10 -4 -10 -10z"/>
<path d="M4722 5381 c4 -13 18 -16 19 -4 0 4 -5 9 -11 12 -7 2 -11 -2 -8 -8z"/>
<path d="M4708 5348 c-5 -12 -18 -18 -38 -18 -24 0 -30 -4 -30 -21 0 -12 8
-28 18 -35 22 -17 82 -18 82 -1 0 8 3 7 10 -3 6 -10 12 -12 20 -4 7 7 3 14
-15 24 -21 11 -28 12 -34 1 -6 -10 -10 -9 -15 5 -4 10 -2 21 5 24 6 4 9 16 7
26 -3 18 -4 18 -10 2z"/>
<path d="M4742 5331 c4 -13 18 -16 19 -4 0 4 -5 9 -11 12 -7 2 -11 -2 -8 -8z"/>
<path d="M2600 5212 c0 -10 11 -29 25 -42 21 -20 28 -22 50 -12 14 6 25 15 25
19 -1 40 -100 74 -100 35z"/>
<path d="M2428 5179 c-19 -20 -24 -74 -9 -83 17 -11 41 30 39 67 -1 42 -5 44
-30 16z"/>
<path d="M2177 5138 c-10 -5 -15 -13 -12 -18 3 -5 1 -11 -5 -15 -5 -3 -10 -1
-10 4 0 19 -20 12 -20 -6 0 -10 -7 -27 -15 -37 -8 -11 -13 -28 -9 -38 4 -14 1
-16 -12 -11 -13 5 -16 3 -11 -10 11 -29 -2 -48 -25 -36 -15 8 -24 7 -39 -7
-10 -9 -19 -22 -19 -28 -1 -6 -9 -29 -20 -51 -11 -22 -19 -61 -20 -87 0 -26
-4 -50 -10 -53 -5 -3 -10 -22 -10 -40 0 -38 -27 -115 -40 -115 -14 0 -40 -31
-40 -47 0 -12 8 -15 40 -10 50 6 90 31 90 56 0 10 6 24 14 30 7 6 21 37 31 69
10 31 26 68 37 81 10 13 18 28 18 34 0 6 11 24 23 41 13 17 27 43 30 57 4 14
16 36 27 49 11 13 20 27 20 32 0 4 12 8 28 8 15 0 35 9 45 20 19 23 22 40 7
40 -5 0 -10 16 -10 35 0 25 -5 37 -17 41 -10 3 -25 9 -34 14 -8 4 -23 4 -32
-2z"/>
<path d="M3312 5128 c-6 -6 -34 -11 -65 -9 -71 3 -88 -5 -154 -69 -65 -64 -83
-101 -83 -170 0 -57 16 -95 66 -157 19 -23 34 -46 34 -53 0 -6 4 -9 10 -5 13
8 -10 -58 -24 -67 -6 -4 -7 -10 -4 -14 13 -12 -34 -45 -104 -73 -75 -29 -2
-51 178 -53 304 -3 343 -3 350 4 4 4 1 15 -6 24 -10 11 -23 14 -48 9 -27 -5
-38 -2 -54 14 -10 12 -25 21 -33 21 -8 0 -15 5 -15 10 0 6 -4 10 -10 10 -5 0
-10 -6 -10 -13 0 -9 -17 -12 -62 -9 -83 4 -104 17 -52 31 50 14 83 14 124 0
26 -9 34 -9 41 2 5 8 9 10 9 6 0 -4 9 -3 21 3 16 9 18 14 8 26 -7 8 -17 13
-23 11 -14 -5 -42 24 -42 43 1 10 15 17 46 20 25 3 56 12 70 19 36 19 80 62
80 78 0 8 9 31 20 53 40 79 21 178 -47 247 -28 27 -41 33 -78 33 -24 0 -46 4
-49 9 -3 5 -16 11 -28 14 -13 2 -30 7 -38 11 -9 4 -21 1 -28 -6z m-17 -142
c19 -14 19 -15 1 -35 -11 -12 -29 -21 -42 -21 -26 0 -55 35 -47 56 7 18 64 18
88 0z m-141 -448 c-3 -4 -12 -8 -20 -8 -17 0 -19 27 -1 33 14 5 28 -13 21 -25z"/>
<path d="M4370 4980 c0 -5 5 -10 10 -10 6 0 10 5 10 10 0 6 -4 10 -10 10 -5 0
-10 -4 -10 -10z"/>
<path d="M2342 4958 c-19 -19 -14 -38 23 -79 36 -40 46 -40 41 1 -6 48 -17 70
-37 70 -11 0 -17 5 -14 10 8 14 2 13 -13 -2z"/>
<path d="M4396 4723 c-10 -10 -7 -81 4 -88 6 -3 10 5 10 19 0 14 5 28 10 31 6
3 10 12 10 20 0 14 -24 27 -34 18z"/>
<path d="M982 4680 c-25 -21 -14 -35 19 -25 15 5 17 10 10 19 -6 7 -8 16 -4
19 14 14 -3 5 -25 -13z"/>
<path d="M878 4600 c-26 -27 -48 -56 -48 -64 0 -26 56 4 75 40 10 18 24 35 31
38 17 7 19 36 2 36 -6 0 -33 -22 -60 -50z"/>
<path d="M4370 4630 c0 -5 5 -10 10 -10 6 0 10 5 10 10 0 6 -4 10 -10 10 -5 0
-10 -4 -10 -10z"/>
<path d="M2728 4495 c-25 -33 -7 -95 27 -95 16 0 23 4 19 13 -3 8 2 19 10 26
18 15 11 41 -17 62 -21 15 -23 15 -39 -6z"/>
<path d="M3531 4464 c0 -11 3 -14 6 -6 3 7 2 16 -1 19 -3 4 -6 -2 -5 -13z"/>
<path d="M3801 4451 c-13 -4 -30 -16 -38 -28 -13 -19 -12 -24 7 -43 17 -17 30
-21 55 -17 21 4 41 0 56 -11 13 -9 52 -21 88 -28 60 -11 69 -11 97 7 22 13 34
30 38 53 10 53 0 66 -53 67 -25 1 -86 2 -136 3 -49 2 -101 0 -114 -3z"/>
<path d="M4626 4375 c-8 -19 -22 -35 -30 -35 -16 0 -40 -35 -32 -48 2 -4 7
-34 10 -66 3 -32 8 -61 11 -64 3 -3 5 0 5 7 0 19 79 121 94 121 8 0 16 -9 19
-21 3 -12 10 -18 15 -15 5 3 12 -4 15 -15 3 -12 10 -18 17 -14 7 4 8 11 1 18
-5 7 -11 27 -14 46 -3 18 -15 42 -26 53 -12 10 -28 30 -37 43 -22 33 -31 31
-48 -10z"/>
<path d="M4189 4308 c-21 -17 -31 -46 -18 -54 17 -10 90 29 87 46 -4 19 -48
25 -69 8z"/>
<path d="M4118 4233 c7 -3 16 -2 19 1 4 3 -2 6 -13 5 -11 0 -14 -3 -6 -6z"/>
<path d="M4543 4015 c-8 -22 6 -33 17 -15 13 20 12 30 0 30 -6 0 -13 -7 -17
-15z"/>
<path d="M4878 3765 c2 -14 8 -28 13 -31 15 -9 22 25 9 41 -19 22 -28 18 -22
-10z"/>
<path d="M4950 3597 c0 -7 7 -22 15 -33 12 -16 14 -17 15 -2 0 23 -11 48 -21
48 -5 0 -9 -6 -9 -13z"/>
<path d="M4615 3470 c-3 -5 -14 -10 -23 -10 -20 0 -92 -61 -92 -78 0 -7 7 -12
16 -12 22 0 74 32 74 45 0 6 9 18 20 28 11 9 20 21 20 27 0 13 -7 13 -15 0z"/>
<path d="M4767 3336 c-4 -9 -14 -12 -26 -9 -15 4 -21 1 -21 -11 0 -9 2 -16 4
-16 2 0 19 -7 38 -15 l35 -14 -1 36 c-1 37 -19 55 -29 29z"/>
<path d="M4426 3314 c-4 -9 -4 -19 -2 -21 8 -8 26 8 26 23 0 19 -16 18 -24 -2z"/>
<path d="M4380 3261 c-69 -39 -100 -51 -127 -51 -34 1 -153 -60 -153 -77 0 -7
-4 -13 -10 -13 -25 0 -6 -19 28 -27 26 -6 41 -17 52 -38 l14 -30 10 36 c12 48
35 60 130 70 46 5 83 13 88 21 25 39 32 128 10 128 -4 0 -23 -9 -42 -19z"/>
<path d="M3986 3082 c-3 -5 8 -6 25 -4 16 2 29 6 29 8 0 8 -49 4 -54 -4z"/>
<path d="M4650 3080 c0 -5 6 -10 13 -10 6 0 22 -3 35 -6 18 -5 21 -3 16 10 -7
17 -64 23 -64 6z"/>
<path d="M4045 3039 c-15 -16 -26 -19 -55 -14 -27 5 -40 2 -50 -9 -7 -9 -22
-16 -33 -16 -12 0 -35 -14 -53 -31 -17 -17 -44 -32 -60 -34 -15 -1 -30 -8 -32
-14 -2 -6 -14 -11 -26 -11 -12 0 -31 -7 -42 -15 -10 -8 -29 -15 -40 -15 -12 0
-27 -7 -35 -16 -7 -9 -21 -13 -33 -10 -25 7 -96 -58 -96 -88 0 -18 5 -19 94
-12 77 5 96 4 106 -9 7 -8 23 -15 37 -15 13 0 26 -7 29 -15 8 -20 40 -19 48 1
4 11 13 14 27 11 12 -3 27 1 37 11 10 9 38 34 64 55 26 21 48 48 50 60 2 14
23 35 56 56 37 24 52 40 52 56 0 14 7 25 20 28 11 3 20 10 20 16 0 15 -37 51
-53 51 -8 0 -22 -9 -32 -21z"/>
<path d="M0 2780 c0 -101 3 -131 12 -127 18 5 18 249 1 255 -10 3 -13 -27 -13
-128z"/>
<path d="M5225 2850 c-3 -5 1 -20 9 -32 9 -12 16 -38 16 -56 0 -26 3 -33 15
-28 9 3 15 0 15 -9 0 -7 10 -15 23 -17 13 -2 28 -15 37 -35 8 -18 23 -35 33
-39 9 -3 17 -12 17 -19 0 -8 9 -19 19 -25 27 -14 62 -13 59 3 -2 7 6 11 21 9
l24 -4 -22 31 c-12 17 -26 31 -30 31 -16 0 -97 74 -173 159 -38 42 -52 49 -63
31z"/>
<path d="M3373 2774 c-24 -14 -40 -30 -37 -35 3 -6 11 -5 20 2 8 6 25 9 39 7
28 -6 50 14 41 37 -7 20 -13 19 -63 -11z"/>
<path d="M0 1295 l0 -1295 1399 0 1398 0 -51 52 c-40 40 -57 51 -78 49 -24 -2
-28 1 -28 22 0 18 -10 32 -34 46 -19 12 -37 32 -40 46 -3 13 -20 33 -36 45
-23 16 -30 29 -30 55 0 25 -5 35 -20 40 -24 7 -27 43 -5 59 10 8 15 35 17 96
l3 85 -138 0 c-121 1 -140 3 -149 18 -7 13 -20 17 -48 15 -24 -1 -44 4 -54 15
-9 9 -23 14 -32 10 -9 -3 -24 4 -36 16 -11 13 -27 20 -35 16 -9 -3 -24 2 -35
12 -13 12 -32 16 -62 14 -33 -2 -45 2 -50 15 -5 13 -14 15 -46 10 -36 -6 -42
-3 -71 29 -23 25 -38 33 -53 29 -15 -3 -35 8 -71 41 -31 28 -59 45 -75 45 -17
0 -47 20 -90 60 -44 42 -72 60 -90 60 -16 0 -37 12 -55 30 -18 19 -35 28 -46
25 -11 -4 -29 5 -49 25 -17 16 -41 30 -54 30 -15 0 -36 13 -54 34 -21 24 -36
33 -50 30 -10 -3 -26 2 -35 10 -8 9 -26 16 -40 16 -13 0 -37 13 -53 30 -17 17
-40 30 -55 30 -16 0 -42 15 -69 40 -25 23 -53 40 -67 40 -15 0 -70 40 -160
118 -76 64 -165 137 -198 162 -67 49 -75 58 -68 76 2 7 -11 23 -31 36 -24 15
-36 31 -36 46 0 12 -7 25 -15 28 -8 4 -15 15 -15 25 0 11 -17 30 -41 46 -37
25 -40 29 -34 61 5 28 3 34 -14 39 -22 6 -24 12 -21 51 1 13 -8 30 -20 40 -19
16 -20 22 -12 90 8 71 8 73 -14 78 -31 8 -36 28 -24 99 20 123 10 255 -20 255
-6 0 -10 -470 -10 -1295z"/>
<path d="M3684 2495 c-10 -8 -27 -15 -36 -15 -10 0 -19 -12 -23 -32 -4 -18
-13 -36 -19 -40 -8 -6 -7 -8 2 -8 16 0 15 -30 -3 -54 -8 -11 -15 -28 -15 -38
0 -10 -4 -18 -10 -18 -5 0 -10 -6 -10 -13 0 -18 -70 -83 -98 -92 -25 -7 -51
-57 -33 -63 6 -2 11 -12 11 -23 0 -10 4 -19 9 -19 5 0 17 -3 27 -7 13 -5 15
-3 9 7 -6 10 -4 12 8 7 12 -4 17 -1 17 10 0 12 3 14 10 7 12 -12 70 -6 70 7 0
5 6 9 13 9 8 0 19 11 25 25 7 14 23 30 37 37 13 6 27 19 31 30 6 19 63 48 95
48 19 0 36 40 25 58 -3 5 -1 23 4 38 11 33 -9 105 -32 115 -7 3 -28 13 -46 22
-41 21 -43 21 -68 2z m-77 -197 c-3 -8 -6 -5 -6 6 -1 11 2 17 5 13 3 -3 4 -12
1 -19z"/>
<path d="M3411 2103 c-13 -3 -31 -11 -38 -19 -12 -12 -12 -14 4 -14 11 0 25 6
31 12 10 10 15 10 22 -2 8 -12 10 -10 10 8 0 12 -1 21 -2 21 -2 -1 -14 -4 -27
-6z"/>
<path d="M3281 2014 c0 -11 3 -14 6 -6 3 7 2 16 -1 19 -3 4 -6 -2 -5 -13z"/>
<path d="M290 1791 c0 -17 18 -21 24 -6 3 9 0 15 -9 15 -8 0 -15 -4 -15 -9z"/>
<path d="M363 1707 c5 -15 37 -22 37 -9 0 5 -9 12 -21 15 -13 3 -19 1 -16 -6z"/>
<path d="M4234 1237 c-3 -10 -3 -32 0 -51 11 -56 -30 -128 -79 -140 -29 -7
-41 -47 -18 -63 15 -12 15 -14 0 -31 -9 -10 -17 -25 -17 -34 0 -22 33 -49 49
-39 11 7 9 10 -8 16 -12 4 -21 15 -21 27 0 18 4 20 44 14 40 -6 46 -5 57 16 7
13 17 26 22 30 6 3 11 55 11 122 1 96 -2 118 -16 132 -16 16 -18 16 -24 1z
m-26 -230 c-7 -31 -15 -57 -18 -57 -15 0 -10 80 7 99 9 11 18 19 20 18 1 -2
-3 -29 -9 -60z m-38 -17 c0 -20 -2 -22 -10 -10 -5 8 -10 26 -10 40 0 20 2 22
10 10 5 -8 10 -26 10 -40z"/>
<path d="M2480 1065 c-10 -12 -16 -13 -27 -4 -7 7 -17 8 -21 4 -4 -4 2 -12 13
-19 10 -6 32 -23 48 -38 16 -16 30 -28 33 -28 9 0 4 39 -6 45 -5 3 -10 15 -10
25 0 26 -15 33 -30 15z"/>
<path d="M2396 1045 c4 -8 8 -15 10 -15 2 0 4 7 4 15 0 8 -4 15 -10 15 -5 0
-7 -7 -4 -15z"/>
<path d="M3901 1039 c-12 -13 -21 -31 -21 -41 0 -10 -6 -18 -14 -18 -7 0 -22
-12 -31 -27 -10 -16 -33 -42 -51 -59 -36 -34 -43 -61 -19 -70 8 -4 15 -12 15
-18 0 -35 172 -44 210 -12 8 7 21 11 28 9 18 -7 72 20 72 35 0 7 4 11 9 7 5
-3 12 -1 16 5 4 6 11 8 16 5 16 -11 9 11 -11 33 -22 23 -26 48 -9 54 14 5 0
38 -16 38 -7 0 -15 7 -19 15 -3 8 -14 15 -24 15 -10 0 -23 5 -29 11 -7 7 -13
8 -17 0 -8 -12 -54 5 -73 26 -9 12 -15 10 -32 -8z m-57 -124 c-7 -16 -24 -21
-24 -6 0 8 7 13 27 20 1 1 0 -6 -3 -14z m237 -58 c-10 -9 -11 -8 -5 6 3 10 9
15 12 12 3 -3 0 -11 -7 -18z m39 13 c0 -5 -2 -10 -4 -10 -3 0 -8 5 -11 10 -3
6 -1 10 4 10 6 0 11 -4 11 -10z m-168 -57 c-12 -2 -20 -9 -17 -14 4 -5 2 -9
-4 -9 -5 0 -12 4 -15 9 -7 11 11 20 39 19 17 -1 16 -1 -3 -5z"/>
<path d="M1530 956 c0 -2 7 -9 15 -16 13 -11 14 -10 9 4 -5 14 -24 23 -24 12z"/>
<path d="M1632 888 c6 -18 28 -21 28 -4 0 9 -7 16 -16 16 -9 0 -14 -5 -12 -12z"/>
<path d="M2554 573 c2 -12 0 -23 -4 -25 -5 -2 -6 -33 -3 -70 3 -37 10 -65 14
-62 12 7 10 134 -2 159 -9 19 -9 19 -5 -2z"/>
<path d="M2610 241 c0 -24 27 -48 40 -35 6 6 4 18 -6 32 -19 27 -34 28 -34 3z"/>
</g>
</svg>
